# xmcd CD database file
#
# Track frame offsets:
#	150
#	21480
#	41475
#	69655
#	80280
#	99510
#	114790
#	132957
#	161305
#	175035
#	191132
#	206502
#	231932
#	265085
#	287035
#	302187
#	312852
#
# Disc length: 4404 seconds
#
# Revision: 0
# Processed by: cddbd v1.5.1PL0 Copyright (c) Steve Scherf et al.
# Submitted via: CDex 1.51
#
DISCID=e4113211
DTITLE=Various artist - Orelans Records Story
DYEAR=1999
DGENRE=Jazz
TTITLE0=Pray
TTITLE1=Born with the Blues
TTITLE2=Its a privilege, baby, to be loved by you
TTITLE3=Ham and eggs
TTITLE4=True blue
TTITLE5=Jump steady come my way
TTITLE6=remember me
TTITLE7=Cottonmouth
TTITLE8=J-Walkin'
TTITLE9=Bring the greenbacks when you call
TTITLE10=A good man is hard to find
TTITLE11=I ate up the apple tree
TTITLE12=I'm not coming back
TTITLE13=Mean little woman
TTITLE14=Chillin' like an ice cube
TTITLE15=Waltz for pud
TTITLE16=Don't let me go
EXTD=YEAR: 1999
EXTT0=
EXTT1=
EXTT2=
EXTT3=
EXTT4=
EXTT5=
EXTT6=
EXTT7=
EXTT8=
EXTT9=
EXTT10=
EXTT11=
EXTT12=
EXTT13=
EXTT14=
EXTT15=
EXTT16=
PLAYORDER=
